<svg xmlns="http://www.w3.org/2000/svg" viewBox="-0.5 -0.5 784 124" height="124" width="784"><path d="M502 62h23.53" fill="none" stroke="#000" stroke-width="4"/><path d="M537.53 62l-16 8 4-8-4-8z" stroke="#000" stroke-width="4"/><ellipse cx="422" cy="62" rx="80" ry="30" fill="#fff" stroke="#000" stroke-width="4"/><text x="421.5" y="66.228" font-size="18" font-weight="700" font-family="Courier New" text-anchor="middle" stroke-width="2">process</text><path d="M302 62h40-40 23.53" fill="none" stroke="#000" stroke-width="4"/><path d="M337.53 62l-16 8 4-8-4-8z" stroke="#000" stroke-width="4"/><path d="M622 62.04l23.53-.02" fill="none" stroke="#000" stroke-width="4"/><path d="M657.53 62l-15.99 8.02 3.99-8-4.01-8z" stroke="#000" stroke-width="4"/><path d="M142 22h40v40h23.53" fill="none" stroke="#000" stroke-width="4"/><path d="M217.53 62l-16 8 4-8-4-8z" stroke="#000" stroke-width="4"/><path fill="#fff" stroke="#000" stroke-width="4" d="M2 2h140v40H2z"/><text x="71.5" y="27.951" font-size="18" font-weight="700" font-family="Courier New" text-anchor="middle" stroke-width="2">input 1</text><path d="M142 102h40V62h23.53" fill="none" stroke="#000" stroke-width="4"/><path d="M217.53 62l-16 8 4-8-4-8z" stroke="#000" stroke-width="4"/><path fill="#fff" stroke="#000" stroke-width="4" d="M2 82h140v40H2z"/><text x="71.5" y="107.951" font-size="18" font-weight="700" font-family="Courier New" text-anchor="middle" stroke-width="2">input 2</text><path fill="#fff" stroke="#000" stroke-width="4" d="M662 42h120v40H662z"/><text x="721.5" y="67.524" font-size="18" font-weight="700" font-family="Courier New" text-anchor="middle" stroke-width="2">output</text><path d="M242 82V42" fill="none" stroke="#000" stroke-width="4"/><path fill="none" d="M222 82V42h80v40z"/><path fill="none" d="M222 82V42h80v40z"/><path d="M222 42h80v40h-82M282 82V42M262 82V42" fill="none" stroke="#000" stroke-width="4"/><path fill="none" d="M542 82V42h80v40z"/><path fill="none" d="M542 82V42h80v40z"/><path d="M542 42h80v40h-82M602 82V42M582 82V42M562 82V42" fill="none" stroke="#000" stroke-width="4"/></svg>